# Stylized mid-poly basketball_hoop
o basketball_hoop
v -0.060000 0.000000 -0.060000
v 0.060000 0.000000 -0.060000
v 0.060000 3.000000 -0.060000
v -0.060000 3.000000 -0.060000
v -0.060000 0.000000 0.060000
v 0.060000 0.000000 0.060000
v 0.060000 3.000000 0.060000
v -0.060000 3.000000 0.060000
v -0.550000 2.550000 0.030000
v 0.550000 2.550000 0.030000
v 0.550000 2.950000 0.030000
v -0.550000 2.950000 0.030000
v -0.550000 2.550000 0.090000
v 0.550000 2.550000 0.090000
v 0.550000 2.950000 0.090000
v -0.550000 2.950000 0.090000
v -0.225000 2.350000 -0.020000
v -0.175000 2.350000 -0.020000
v -0.175000 2.375000 -0.020000
v -0.225000 2.375000 -0.020000
v -0.225000 2.350000 0.420000
v -0.175000 2.350000 0.420000
v -0.175000 2.375000 0.420000
v -0.225000 2.375000 0.420000
v 0.175000 2.350000 -0.020000
v 0.225000 2.350000 -0.020000
v 0.225000 2.375000 -0.020000
v 0.175000 2.375000 -0.020000
v 0.175000 2.350000 0.420000
v 0.225000 2.350000 0.420000
v 0.225000 2.375000 0.420000
v 0.175000 2.375000 0.420000
v -0.220000 2.350000 0.395000
v 0.220000 2.350000 0.395000
v 0.220000 2.375000 0.395000
v -0.220000 2.375000 0.395000
v -0.220000 2.350000 0.445000
v 0.220000 2.350000 0.445000
v 0.220000 2.375000 0.445000
v -0.220000 2.375000 0.445000
v -0.100000 2.350000 0.010000
v 0.100000 2.350000 0.010000
v 0.100000 2.410000 0.010000
v -0.100000 2.410000 0.010000
v -0.100000 2.350000 0.070000
v 0.100000 2.350000 0.070000
v 0.100000 2.410000 0.070000
v -0.100000 2.410000 0.070000
vn 0.000000 0.000000 1.000000
vn 0.000000 0.000000 1.000000
vn 0.000000 0.000000 -1.000000
vn 0.000000 0.000000 -1.000000
vn 0.000000 1.000000 0.000000
vn 0.000000 1.000000 0.000000
vn -1.000000 0.000000 0.000000
vn -1.000000 0.000000 0.000000
vn 0.000000 1.000000 0.000000
vn 0.000000 1.000000 -0.000000
vn 1.000000 0.000000 -0.000000
vn 1.000000 0.000000 0.000000
vn 0.000000 0.000000 1.000000
vn 0.000000 0.000000 1.000000
vn 0.000000 0.000000 -1.000000
vn 0.000000 0.000000 -1.000000
vn 0.000000 1.000000 0.000000
vn 0.000000 1.000000 0.000000
vn -1.000000 0.000000 0.000000
vn -1.000000 0.000000 0.000000
vn 0.000000 1.000000 0.000000
vn 0.000000 1.000000 -0.000000
vn 1.000000 0.000000 -0.000000
vn 1.000000 0.000000 0.000000
vn 0.000000 0.000000 1.000000
vn 0.000000 0.000000 1.000000
vn 0.000000 0.000000 -1.000000
vn 0.000000 0.000000 -1.000000
vn 0.000000 1.000000 0.000000
vn 0.000000 1.000000 0.000000
vn -1.000000 0.000000 0.000000
vn -1.000000 0.000000 0.000000
vn 0.000000 1.000000 0.000000
vn 0.000000 1.000000 -0.000000
vn 1.000000 0.000000 -0.000000
vn 1.000000 0.000000 0.000000
vn 0.000000 0.000000 1.000000
vn 0.000000 0.000000 1.000000
vn 0.000000 0.000000 -1.000000
vn 0.000000 0.000000 -1.000000
vn 0.000000 1.000000 0.000000
vn 0.000000 1.000000 0.000000
vn -1.000000 0.000000 0.000000
vn -1.000000 0.000000 0.000000
vn 0.000000 1.000000 0.000000
vn 0.000000 1.000000 -0.000000
vn 1.000000 0.000000 -0.000000
vn 1.000000 0.000000 0.000000
vn 0.000000 0.000000 1.000000
vn 0.000000 0.000000 1.000000
vn 0.000000 0.000000 -1.000000
vn 0.000000 0.000000 -1.000000
vn 0.000000 1.000000 0.000000
vn 0.000000 1.000000 0.000000
vn -1.000000 0.000000 0.000000
vn -1.000000 0.000000 0.000000
vn 0.000000 1.000000 0.000000
vn 0.000000 1.000000 -0.000000
vn 1.000000 0.000000 -0.000000
vn 1.000000 0.000000 0.000000
vn 0.000000 0.000000 1.000000
vn 0.000000 0.000000 1.000000
vn 0.000000 0.000000 -1.000000
vn 0.000000 0.000000 -1.000000
vn 0.000000 1.000000 0.000000
vn 0.000000 1.000000 0.000000
vn -1.000000 0.000000 0.000000
vn -1.000000 0.000000 0.000000
vn 0.000000 1.000000 0.000000
vn 0.000000 1.000000 -0.000000
vn 1.000000 0.000000 -0.000000
vn 1.000000 0.000000 0.000000
f 1//1 2//1 3//1
f 1//2 3//2 4//2
f 5//3 7//3 6//3
f 5//4 8//4 7//4
f 1//5 5//5 6//5
f 1//6 6//6 2//6
f 2//7 6//7 7//7
f 2//8 7//8 3//8
f 3//9 4//9 8//9
f 3//10 8//10 7//10
f 4//11 8//11 5//11
f 4//12 5//12 1//12
f 9//13 10//13 11//13
f 9//14 11//14 12//14
f 13//15 15//15 14//15
f 13//16 16//16 15//16
f 9//17 13//17 14//17
f 9//18 14//18 10//18
f 10//19 14//19 15//19
f 10//20 15//20 11//20
f 11//21 12//21 16//21
f 11//22 16//22 15//22
f 12//23 16//23 13//23
f 12//24 13//24 9//24
f 17//25 18//25 19//25
f 17//26 19//26 20//26
f 21//27 23//27 22//27
f 21//28 24//28 23//28
f 17//29 21//29 22//29
f 17//30 22//30 18//30
f 18//31 22//31 23//31
f 18//32 23//32 19//32
f 19//33 20//33 24//33
f 19//34 24//34 23//34
f 20//35 24//35 21//35
f 20//36 21//36 17//36
f 25//37 26//37 27//37
f 25//38 27//38 28//38
f 29//39 31//39 30//39
f 29//40 32//40 31//40
f 25//41 29//41 30//41
f 25//42 30//42 26//42
f 26//43 30//43 31//43
f 26//44 31//44 27//44
f 27//45 28//45 32//45
f 27//46 32//46 31//46
f 28//47 32//47 29//47
f 28//48 29//48 25//48
f 33//49 34//49 35//49
f 33//50 35//50 36//50
f 37//51 39//51 38//51
f 37//52 40//52 39//52
f 33//53 37//53 38//53
f 33//54 38//54 34//54
f 34//55 38//55 39//55
f 34//56 39//56 35//56
f 35//57 36//57 40//57
f 35//58 40//58 39//58
f 36//59 40//59 37//59
f 36//60 37//60 33//60
f 41//61 42//61 43//61
f 41//62 43//62 44//62
f 45//63 47//63 46//63
f 45//64 48//64 47//64
f 41//65 45//65 46//65
f 41//66 46//66 42//66
f 42//67 46//67 47//67
f 42//68 47//68 43//68
f 43//69 44//69 48//69
f 43//70 48//70 47//70
f 44//71 48//71 45//71
f 44//72 45//72 41//72
