o bench
v -0.50 0.35 -0.20
v 0.50 0.35 -0.20
v 0.50 0.45 -0.20
v -0.50 0.45 -0.20
v -0.50 0.35 0.20
v 0.50 0.35 0.20
v 0.50 0.45 0.20
v -0.50 0.45 0.20
v -0.50 0.55 0.28
v 0.50 0.55 0.28
v 0.50 0.90 0.28
v -0.50 0.90 0.28
v -0.45 0.00 -0.16
v -0.39 0.00 -0.16
v -0.39 0.35 -0.16
v -0.45 0.35 -0.16
v -0.45 0.00 0.16
v -0.39 0.00 0.16
v -0.39 0.35 0.16
v -0.45 0.35 0.16
v 0.39 0.00 -0.16
v 0.45 0.00 -0.16
v 0.45 0.35 -0.16
v 0.39 0.35 -0.16
v 0.39 0.00 0.16
v 0.45 0.00 0.16
v 0.45 0.35 0.16
v 0.39 0.35 0.16
vn 0.000000 0.000000 -1.000000
vn 0.000000 0.000000 -1.000000
vn 0.000000 0.000000 1.000000
vn 0.000000 0.000000 1.000000
vn 0.000000 -1.000000 0.000000
vn 0.000000 -1.000000 0.000000
vn 1.000000 0.000000 0.000000
vn 1.000000 0.000000 0.000000
vn 0.000000 1.000000 0.000000
vn 0.000000 1.000000 0.000000
vn -1.000000 0.000000 0.000000
vn -1.000000 0.000000 0.000000
vn 0.000000 0.000000 1.000000
vn 0.000000 0.000000 1.000000
vn 0.000000 0.000000 -1.000000
vn 0.000000 0.000000 -1.000000
vn 0.000000 0.000000 1.000000
vn 0.000000 0.000000 1.000000
vn 0.000000 -1.000000 0.000000
vn 0.000000 -1.000000 0.000000
vn -1.000000 0.000000 0.000000
vn -1.000000 0.000000 0.000000
vn 0.000000 -1.000000 0.000000
vn 0.000000 -1.000000 0.000000
vn -1.000000 0.000000 0.000000
vn -1.000000 0.000000 0.000000
vn 0.000000 0.000000 -1.000000
vn 0.000000 0.000000 -1.000000
vn 0.000000 0.000000 1.000000
vn 0.000000 0.000000 1.000000
vn 0.000000 -1.000000 0.000000
vn 0.000000 -1.000000 0.000000
vn 1.000000 0.000000 0.000000
vn 1.000000 0.000000 0.000000
vn 0.000000 -1.000000 0.000000
vn 0.000000 -1.000000 0.000000
vn 1.000000 0.000000 0.000000
vn 1.000000 0.000000 0.000000
f 1//1 3//1 2//1
f 1//2 4//2 3//2
f 5//3 7//3 8//3
f 5//4 6//4 7//4
f 1//5 6//5 5//5
f 1//6 2//6 6//6
f 2//7 7//7 6//7
f 2//8 3//8 7//8
f 3//9 8//9 7//9
f 3//10 4//10 8//10
f 4//11 5//11 8//11
f 4//12 1//12 5//12
f 9//13 10//13 11//13
f 9//14 11//14 12//14
f 13//15 15//15 14//15
f 13//16 16//16 15//16
f 17//17 19//17 20//17
f 17//18 18//18 19//18
f 13//19 18//19 17//19
f 13//20 14//20 18//20
f 14//21 18//21 19//21
f 14//22 19//22 15//22
f 15//23 19//23 20//23
f 15//24 20//24 16//24
f 16//25 17//25 20//25
f 16//26 13//26 17//26
f 21//27 23//27 22//27
f 21//28 24//28 23//28
f 25//29 27//29 28//29
f 25//30 26//30 27//30
f 21//31 26//31 25//31
f 21//32 22//32 26//32
f 22//33 27//33 26//33
f 22//34 23//34 27//34
f 23//35 27//35 28//35
f 23//36 28//36 24//36
f 24//37 28//37 25//37
f 24//38 25//38 21//38
# pipeline_v2_closed_backrest_infill
v -0.500000 0.550000 0.240000
v 0.500000 0.550000 0.240000
v 0.500000 0.900000 0.240000
v -0.500000 0.900000 0.240000
vn 0.000000 0.000000 -1.000000
vn 0.000000 -1.000000 0.000000
vn 1.000000 0.000000 0.000000
vn 0.000000 1.000000 0.000000
vn -1.000000 0.000000 0.000000
f 29//39 31//39 30//39
f 29//39 32//39 31//39
f 9//40 30//40 10//40
f 9//40 29//40 30//40
f 10//41 31//41 11//41
f 10//41 30//41 31//41
f 11//42 32//42 12//42
f 11//42 31//42 32//42
f 12//43 29//43 9//43
f 12//43 32//43 29//43
