o curb_ramp
v -0.50 0.00 -0.50
v 0.50 0.00 -0.50
v 0.50 0.20 0.50
v -0.50 0.20 0.50
v -0.50 0.00 0.50
v 0.50 0.00 0.50
vn 0.000000 -0.980581 0.196116
vn 0.000000 -0.980581 0.196116
vn 0.000000 -1.000000 0.000000
vn 0.000000 -1.000000 0.000000
vn 0.000000 0.000000 1.000000
vn 0.000000 0.000000 1.000000
vn -1.000000 0.000000 0.000000
vn 1.000000 0.000000 0.000000
f 1//1 2//1 3//1
f 1//2 3//2 4//2
f 1//3 6//3 5//3
f 1//4 2//4 6//4
f 5//5 3//5 4//5
f 5//6 6//6 3//6
f 1//7 5//7 4//7
f 2//8 3//8 6//8
