o notice_board
v -0.50 0.00 -0.06
v 0.50 0.00 -0.06
v 0.50 1.00 -0.06
v -0.50 1.00 -0.06
v -0.50 0.00 -0.04
v 0.50 0.00 -0.04
v 0.50 1.00 -0.04
v -0.50 1.00 -0.04
vn 0.000000 0.000000 -1.000000
vn 0.000000 0.000000 -1.000000
vn 0.000000 0.000000 1.000000
vn 0.000000 0.000000 1.000000
vn 0.000000 -1.000000 0.000000
vn 0.000000 -1.000000 0.000000
vn 1.000000 0.000000 0.000000
vn 1.000000 0.000000 0.000000
vn 0.000000 1.000000 0.000000
vn 0.000000 1.000000 0.000000
vn -1.000000 0.000000 0.000000
vn -1.000000 0.000000 0.000000
f 1//1 3//1 2//1
f 1//2 4//2 3//2
f 5//3 6//3 7//3
f 5//4 7//4 8//4
f 1//5 2//5 6//5
f 1//6 6//6 5//6
f 2//7 3//7 7//7
f 2//8 7//8 6//8
f 3//9 4//9 8//9
f 3//10 8//10 7//10
f 4//11 1//11 5//11
f 4//12 5//12 8//12
