# Low-poly shop mass with a small front parapet and uneven roof line.
o shop_zenona_v2
v -0.50 0.00 -0.50
v 0.50 0.00 -0.50
v 0.50 0.82 -0.50
v -0.50 0.82 -0.50
v -0.50 0.00 0.50
v 0.50 0.00 0.50
v 0.50 0.76 0.50
v -0.50 0.76 0.50
v -0.54 0.82 -0.55
v 0.54 0.82 -0.55
v 0.54 1.00 -0.55
v -0.54 1.00 -0.55
v -0.50 0.90 0.48
v 0.50 0.86 0.48
vn 0.000000 0.000000 -1.000000
vn 0.000000 0.000000 -1.000000
vn 0.000000 0.000000 1.000000
vn 0.000000 0.000000 1.000000
vn 0.000000 -1.000000 0.000000
vn 0.000000 -1.000000 0.000000
vn 1.000000 0.000000 0.000000
vn 1.000000 0.000000 0.000000
vn -1.000000 0.000000 0.000000
vn -1.000000 0.000000 0.000000
vn 0.000000 0.999168 -0.040782
vn 0.039836 0.995893 -0.081297
vn 0.005657 0.141419 0.989934
vn 0.000000 0.196116 0.980581
vn 0.000000 0.000000 -1.000000
vn 0.000000 0.000000 -1.000000
vn -0.780869 0.000000 0.624695
vn 0.780869 0.000000 0.624695
vn 0.000000 1.000000 0.000000
vn 0.000000 1.000000 0.000000
vn 0.000000 -0.267644 -0.963518
vn 0.000000 -0.267644 -0.963518
f 1//1 3//1 2//1
f 1//2 4//2 3//2
f 5//3 7//3 8//3
f 5//4 6//4 7//4
f 1//5 6//5 5//5
f 1//6 2//6 6//6
f 2//7 7//7 6//7
f 2//8 3//8 7//8
f 4//9 5//9 8//9
f 4//10 1//10 5//10
f 4//11 14//11 3//11
f 4//12 13//12 14//12
f 8//13 14//13 13//13
f 8//14 7//14 14//14
f 9//15 11//15 10//15
f 9//16 12//16 11//16
f 4//17 12//17 9//17
f 3//18 10//18 11//18
f 9//19 4//19 3//19
f 9//20 3//20 10//20
f 12//21 11//21 3//21
f 12//22 3//22 4//22
