# Zenon shop stylized asset
o shop_zenona
v -0.50 0.00 -0.50
v 0.50 0.00 -0.50
v 0.50 0.82 -0.50
v -0.50 0.82 -0.50
v -0.50 0.00 0.50
v 0.50 0.00 0.50
v 0.50 0.82 0.50
v -0.50 0.82 0.50
v -0.42 0.40 -0.55
v 0.42 0.40 -0.55
v 0.42 0.56 -0.55
v -0.42 0.56 -0.55
v -0.48 0.68 -0.58
v 0.48 0.68 -0.58
v 0.48 0.80 -0.58
v -0.48 0.80 -0.58
v -0.15 0.00 -0.57
v 0.15 0.00 -0.57
v 0.15 0.36 -0.57
v -0.15 0.36 -0.57
vn 0.000000 0.000000 -1.000000
vn 0.000000 0.000000 -1.000000
vn 0.000000 0.000000 1.000000
vn 0.000000 0.000000 1.000000
vn 0.000000 -1.000000 0.000000
vn 0.000000 -1.000000 0.000000
vn 1.000000 0.000000 0.000000
vn 1.000000 0.000000 0.000000
vn 0.000000 1.000000 0.000000
vn 0.000000 1.000000 0.000000
vn -1.000000 0.000000 0.000000
vn -1.000000 0.000000 0.000000
vn 0.000000 0.000000 -1.000000
vn 0.000000 0.000000 -1.000000
vn 0.000000 0.000000 -1.000000
vn 0.000000 0.000000 -1.000000
vn 0.000000 0.000000 -1.000000
vn 0.000000 0.000000 -1.000000
f 1//1 3//1 2//1
f 1//2 4//2 3//2
f 5//3 7//3 8//3
f 5//4 6//4 7//4
f 1//5 6//5 5//5
f 1//6 2//6 6//6
f 2//7 7//7 6//7
f 2//8 3//8 7//8
f 3//9 8//9 7//9
f 3//10 4//10 8//10
f 4//11 5//11 8//11
f 4//12 1//12 5//12
f 9//13 11//13 10//13
f 9//14 12//14 11//14
f 13//15 15//15 14//15
f 13//16 16//16 15//16
f 17//17 19//17 18//17
f 17//18 20//18 19//18
