o trash_shelter
v -0.520000 0.000000 -0.500000
v -0.440000 0.000000 -0.500000
v -0.440000 0.700000 -0.500000
v -0.520000 0.700000 -0.500000
v -0.520000 0.000000 0.500000
v -0.440000 0.000000 0.500000
v -0.440000 0.700000 0.500000
v -0.520000 0.700000 0.500000
v 0.440000 0.000000 -0.500000
v 0.520000 0.000000 -0.500000
v 0.520000 0.700000 -0.500000
v 0.440000 0.700000 -0.500000
v 0.440000 0.000000 0.500000
v 0.520000 0.000000 0.500000
v 0.520000 0.700000 0.500000
v 0.440000 0.700000 0.500000
v -0.500000 0.000000 0.440000
v 0.500000 0.000000 0.440000
v 0.500000 0.700000 0.440000
v -0.500000 0.700000 0.440000
v -0.500000 0.000000 0.520000
v 0.500000 0.000000 0.520000
v 0.500000 0.700000 0.520000
v -0.500000 0.700000 0.520000
v -0.550000 0.680000 -0.540000
v 0.550000 0.680000 -0.540000
v 0.550000 0.760000 -0.540000
v -0.550000 0.760000 -0.540000
v -0.550000 0.680000 0.540000
v 0.550000 0.680000 0.540000
v 0.550000 0.760000 0.540000
v -0.550000 0.760000 0.540000
v -0.500000 0.000000 -0.500000
v 0.500000 0.000000 -0.500000
v 0.500000 0.080000 -0.500000
v -0.500000 0.080000 -0.500000
v -0.500000 0.000000 0.500000
v 0.500000 0.000000 0.500000
v 0.500000 0.080000 0.500000
v -0.500000 0.080000 0.500000
v -0.360000 0.000000 -0.260000
v -0.120000 0.000000 -0.260000
v -0.120000 0.400000 -0.260000
v -0.360000 0.400000 -0.260000
v -0.360000 0.000000 0.100000
v -0.120000 0.000000 0.100000
v -0.120000 0.400000 0.100000
v -0.360000 0.400000 0.100000
v 0.120000 0.000000 -0.260000
v 0.360000 0.000000 -0.260000
v 0.360000 0.400000 -0.260000
v 0.120000 0.400000 -0.260000
v 0.120000 0.000000 0.100000
v 0.360000 0.000000 0.100000
v 0.360000 0.400000 0.100000
v 0.120000 0.400000 0.100000
v -0.500000 0.450000 -0.320000
v 0.500000 0.450000 -0.320000
v 0.500000 0.530000 -0.320000
v -0.500000 0.530000 -0.320000
v -0.500000 0.450000 -0.240000
v 0.500000 0.450000 -0.240000
v 0.500000 0.530000 -0.240000
v -0.500000 0.530000 -0.240000
vn 0.000000 0.000000 -1.000000
vn 0.000000 0.000000 -1.000000
vn 0.000000 0.000000 1.000000
vn 0.000000 0.000000 1.000000
vn 0.000000 -1.000000 0.000000
vn 0.000000 -1.000000 0.000000
vn 1.000000 0.000000 0.000000
vn 1.000000 0.000000 0.000000
vn 0.000000 1.000000 0.000000
vn 0.000000 1.000000 -0.000000
vn -1.000000 0.000000 0.000000
vn -1.000000 0.000000 0.000000
vn 0.000000 0.000000 -1.000000
vn 0.000000 0.000000 -1.000000
vn 0.000000 0.000000 1.000000
vn 0.000000 0.000000 1.000000
vn 0.000000 -1.000000 0.000000
vn 0.000000 -1.000000 0.000000
vn 1.000000 0.000000 0.000000
vn 1.000000 0.000000 0.000000
vn 0.000000 1.000000 0.000000
vn 0.000000 1.000000 -0.000000
vn -1.000000 0.000000 0.000000
vn -1.000000 0.000000 0.000000
vn 0.000000 0.000000 -1.000000
vn 0.000000 0.000000 -1.000000
vn 0.000000 0.000000 1.000000
vn 0.000000 0.000000 1.000000
vn 0.000000 -1.000000 0.000000
vn 0.000000 -1.000000 0.000000
vn 1.000000 0.000000 0.000000
vn 1.000000 0.000000 0.000000
vn 0.000000 1.000000 0.000000
vn 0.000000 1.000000 -0.000000
vn -1.000000 0.000000 0.000000
vn -1.000000 0.000000 0.000000
vn 0.000000 0.000000 -1.000000
vn 0.000000 0.000000 -1.000000
vn 0.000000 0.000000 1.000000
vn 0.000000 0.000000 1.000000
vn 0.000000 -1.000000 0.000000
vn 0.000000 -1.000000 0.000000
vn 1.000000 0.000000 0.000000
vn 1.000000 0.000000 0.000000
vn 0.000000 1.000000 0.000000
vn 0.000000 1.000000 -0.000000
vn -1.000000 0.000000 0.000000
vn -1.000000 0.000000 0.000000
vn 0.000000 0.000000 -1.000000
vn 0.000000 0.000000 -1.000000
vn 0.000000 0.000000 1.000000
vn 0.000000 0.000000 1.000000
vn 0.000000 -1.000000 0.000000
vn 0.000000 -1.000000 0.000000
vn 1.000000 0.000000 0.000000
vn 1.000000 0.000000 0.000000
vn 0.000000 1.000000 0.000000
vn 0.000000 1.000000 -0.000000
vn -1.000000 0.000000 0.000000
vn -1.000000 0.000000 0.000000
vn 0.000000 0.000000 -1.000000
vn 0.000000 0.000000 -1.000000
vn 0.000000 0.000000 1.000000
vn 0.000000 0.000000 1.000000
vn 0.000000 -1.000000 0.000000
vn 0.000000 -1.000000 0.000000
vn 1.000000 0.000000 0.000000
vn 1.000000 0.000000 0.000000
vn 0.000000 1.000000 0.000000
vn 0.000000 1.000000 -0.000000
vn -1.000000 0.000000 0.000000
vn -1.000000 0.000000 0.000000
vn 0.000000 0.000000 -1.000000
vn 0.000000 0.000000 -1.000000
vn 0.000000 0.000000 1.000000
vn 0.000000 0.000000 1.000000
vn 0.000000 -1.000000 0.000000
vn 0.000000 -1.000000 0.000000
vn 1.000000 0.000000 0.000000
vn 1.000000 0.000000 0.000000
vn 0.000000 1.000000 0.000000
vn 0.000000 1.000000 -0.000000
vn -1.000000 0.000000 0.000000
vn -1.000000 0.000000 0.000000
vn 0.000000 0.000000 -1.000000
vn 0.000000 0.000000 -1.000000
vn 0.000000 0.000000 1.000000
vn 0.000000 0.000000 1.000000
vn 0.000000 -1.000000 0.000000
vn 0.000000 -1.000000 0.000000
vn 1.000000 0.000000 0.000000
vn 1.000000 0.000000 0.000000
vn 0.000000 1.000000 0.000000
vn 0.000000 1.000000 -0.000000
vn -1.000000 0.000000 0.000000
vn -1.000000 0.000000 0.000000
f 1//1 4//1 3//1
f 1//2 3//2 2//2
f 5//3 6//3 7//3
f 5//4 7//4 8//4
f 1//5 2//5 6//5
f 1//6 6//6 5//6
f 2//7 3//7 7//7
f 2//8 7//8 6//8
f 3//9 4//9 8//9
f 3//10 8//10 7//10
f 4//11 1//11 5//11
f 4//12 5//12 8//12
f 9//13 12//13 11//13
f 9//14 11//14 10//14
f 13//15 14//15 15//15
f 13//16 15//16 16//16
f 9//17 10//17 14//17
f 9//18 14//18 13//18
f 10//19 11//19 15//19
f 10//20 15//20 14//20
f 11//21 12//21 16//21
f 11//22 16//22 15//22
f 12//23 9//23 13//23
f 12//24 13//24 16//24
f 17//25 20//25 19//25
f 17//26 19//26 18//26
f 21//27 22//27 23//27
f 21//28 23//28 24//28
f 17//29 18//29 22//29
f 17//30 22//30 21//30
f 18//31 19//31 23//31
f 18//32 23//32 22//32
f 19//33 20//33 24//33
f 19//34 24//34 23//34
f 20//35 17//35 21//35
f 20//36 21//36 24//36
f 25//37 28//37 27//37
f 25//38 27//38 26//38
f 29//39 30//39 31//39
f 29//40 31//40 32//40
f 25//41 26//41 30//41
f 25//42 30//42 29//42
f 26//43 27//43 31//43
f 26//44 31//44 30//44
f 27//45 28//45 32//45
f 27//46 32//46 31//46
f 28//47 25//47 29//47
f 28//48 29//48 32//48
f 33//49 36//49 35//49
f 33//50 35//50 34//50
f 37//51 38//51 39//51
f 37//52 39//52 40//52
f 33//53 34//53 38//53
f 33//54 38//54 37//54
f 34//55 35//55 39//55
f 34//56 39//56 38//56
f 35//57 36//57 40//57
f 35//58 40//58 39//58
f 36//59 33//59 37//59
f 36//60 37//60 40//60
f 41//61 44//61 43//61
f 41//62 43//62 42//62
f 45//63 46//63 47//63
f 45//64 47//64 48//64
f 41//65 42//65 46//65
f 41//66 46//66 45//66
f 42//67 43//67 47//67
f 42//68 47//68 46//68
f 43//69 44//69 48//69
f 43//70 48//70 47//70
f 44//71 41//71 45//71
f 44//72 45//72 48//72
f 49//73 52//73 51//73
f 49//74 51//74 50//74
f 53//75 54//75 55//75
f 53//76 55//76 56//76
f 49//77 50//77 54//77
f 49//78 54//78 53//78
f 50//79 51//79 55//79
f 50//80 55//80 54//80
f 51//81 52//81 56//81
f 51//82 56//82 55//82
f 52//83 49//83 53//83
f 52//84 53//84 56//84
f 57//85 60//85 59//85
f 57//86 59//86 58//86
f 61//87 62//87 63//87
f 61//88 63//88 64//88
f 57//89 58//89 62//89
f 57//90 62//90 61//90
f 58//91 59//91 63//91
f 58//92 63//92 62//92
f 59//93 60//93 64//93
f 59//94 64//94 63//94
f 60//95 57//95 61//95
f 60//96 61//96 64//96
