# Reusable authored low-poly unit box.
o unit_box
v -0.50 0.00 -0.50
v 0.50 0.00 -0.50
v 0.50 1.00 -0.50
v -0.50 1.00 -0.50
v -0.50 0.00 0.50
v 0.50 0.00 0.50
v 0.50 1.00 0.50
v -0.50 1.00 0.50
vn 0.000000 0.000000 -1.000000
vn 0.000000 0.000000 -1.000000
vn 0.000000 0.000000 1.000000
vn 0.000000 0.000000 1.000000
vn 0.000000 -1.000000 0.000000
vn 0.000000 -1.000000 0.000000
vn 1.000000 0.000000 0.000000
vn 1.000000 0.000000 0.000000
vn 0.000000 1.000000 0.000000
vn 0.000000 1.000000 0.000000
vn -1.000000 0.000000 0.000000
vn -1.000000 0.000000 0.000000
f 1//1 3//1 2//1
f 1//2 4//2 3//2
f 5//3 7//3 8//3
f 5//4 6//4 7//4
f 1//5 6//5 5//5
f 1//6 2//6 6//6
f 2//7 7//7 6//7
f 2//8 3//8 7//8
f 3//9 8//9 7//9
f 3//10 4//10 8//10
f 4//11 5//11 8//11
f 4//12 1//12 5//12
